<svg xmlns="http://www.w3.org/2000/svg" width="8" height="4" viewBox="0 0 8 4" fill="none">
  <path d="M7.04383 0.439583C7.04383 0.559844 6.99758 0.67184 6.91352 0.755589L3.84224 3.82142C3.83128 3.83263 3.82195 3.84138 3.81197 3.84855L3.78912 3.86668C3.6993 3.95608 3.59362 4 3.48175 4C3.36787 4 3.26139 3.9551 3.18193 3.87368L0.127739 0.786765C0.0453908 0.703259 0 0.591758 0 0.472906C0 0.35669 0.0440564 0.246909 0.123937 0.163823C0.20407 0.0812402 0.31583 0.0337013 0.430386 0.0337013C0.543539 0.0337013 0.650743 0.0787226 0.732227 0.160701L3.48708 2.94546L6.31479 0.125162C6.3959 0.0445433 6.50189 0 6.61369 0C6.73082 0 6.84073 0.0476063 6.92314 0.133739C7.00094 0.215709 7.04382 0.324516 7.04382 0.439566L7.04383 0.439583Z" fill="#999999"/>
</svg>
