<svg xmlns="http://www.w3.org/2000/svg" width="22" height="22" viewBox="0 0 22 22" fill="none">
<path d="M15.4192 9.86333L10.3886 15.3633C10.3028 15.4574 10.1983 15.5324 10.0818 15.5837C9.9653 15.635 9.83937 15.6614 9.71208 15.6612H9.70658C9.57839 15.6605 9.45179 15.6328 9.33495 15.5801C9.21811 15.5274 9.11362 15.4507 9.02825 15.3551L6.5725 12.6051C6.49233 12.5153 6.43063 12.4106 6.39093 12.2969C6.35122 12.1833 6.33429 12.0629 6.3411 11.9427C6.34791 11.8225 6.37833 11.7049 6.43061 11.5964C6.4829 11.488 6.55603 11.3909 6.64583 11.3107C6.73564 11.2306 6.84035 11.1689 6.954 11.1292C7.06764 11.0895 7.188 11.0725 7.30819 11.0794C7.42838 11.0862 7.54605 11.1166 7.65448 11.1689C7.76292 11.2211 7.85999 11.2943 7.94017 11.3841L9.72033 13.3778L14.0662 8.62583C14.1475 8.53699 14.2455 8.46503 14.3545 8.41405C14.4636 8.36307 14.5816 8.33406 14.7019 8.3287C14.8222 8.32334 14.9423 8.34172 15.0555 8.38279C15.1687 8.42387 15.2727 8.48683 15.3615 8.56808C15.4503 8.64934 15.5223 8.7473 15.5733 8.85636C15.6243 8.96543 15.6533 9.08347 15.6586 9.20375C15.664 9.32402 15.6456 9.44418 15.6045 9.55735C15.5635 9.67052 15.5005 9.77449 15.4192 9.86333ZM11.0009 0C4.9335 0.000916667 0 4.93717 0 11.0009C0 17.0674 4.9335 22.0009 11 22.0009C17.0637 22.0009 22 17.0674 22 11.0009C22 4.93717 17.0637 0.0009166 11 0.0009166" fill="#FFCF13"/>
</svg>
